HIERARCHY
ROOT Hips
{
    OFFSET 0.0 0.0 0.0
    CHANNELS 6 Xposition Yposition Zposition Zrotation Xrotation Yrotation
    JOINT Spine
    {
        OFFSET 0.0 5.0 0.0
        CHANNELS 3 Zrotation Xrotation Yrotation
        JOINT Chest
        {
            OFFSET 0.0 5.0 0.0
            CHANNELS 3 Zrotation Xrotation Yrotation
            JOINT Neck
            {
                OFFSET 0.0 8.0 0.0
                CHANNELS 3 Zrotation Xrotation Yrotation
                JOINT Head
                {
                    OFFSET 0.0 5.0 0.0
                    CHANNELS 3 Zrotation Xrotation Yrotation
                    End Site
                    {
                        OFFSET 0.0 3.0 0.0
                    }
                }
            }
            JOINT LeftShoulder
            {
                OFFSET -5.0 0.0 0.0
                CHANNELS 3 Zrotation Xrotation Yrotation
                JOINT LeftArm
                {
                    OFFSET 0.0 -10.0 0.0
                    CHANNELS 3 Zrotation Xrotation Yrotation
                    JOINT LeftForeArm
                    {
                        OFFSET 0.0 -10.0 0.0
                        CHANNELS 3 Zrotation Xrotation Yrotation
                        End Site
                        {
                            OFFSET 0.0 -3.0 0.0
                        }
                    }
                }
            }
        }
    }
}

MOTION
Frames: 14
Frame Time: 0.033333
960.000000 445.000000 101.663296 0.000000 0.000000 0.000000 0.000000 0.000000 0.000000 23.025492 12.630457 0.000000 180.000000 -0.934285 0.000000 21.801409 0.948655 -0.000000 158.198591 5.186207 30.000000 15.945396 -6.071058 0.000000 18.000000 -0.005545 0.000000
1691.525230 140.756605 107.867694 0.000000 0.000000 0.000000 0.000000 0.000000 0.000000 -163.376529 -3.122240 4.973798 16.623471 -4.017798 4.973798 -171.853121 -3.564772 3.759997 99.744051 -22.901259 29.763441 -171.126653 -3.530748 -3.759997 0.673538 0.349628 0.313953
1636.048050 128.802021 123.249989 0.000000 0.000000 0.000000 0.000000 0.000000 0.000000 157.904128 -4.857229 9.635073 -22.095872 -17.667784 9.635073 -171.936471 -3.769760 7.460697 -143.675701 2.910444 29.057495 -173.500805 -4.707861 -7.460697 0.570999 0.451837 0.626666
1578.156967 80.474526 119.489411 0.000000 0.000000 0.000000 0.000000 0.000000 0.000000 -139.519796 9.073210 13.690942 40.480204 -7.079288 13.690942 -174.507724 -3.670115 11.043737 119.111399 1.915293 27.893295 -173.607258 -4.425714 -11.043737 0.461920 0.434027 0.936907
960.418757 444.998421 119.863928 0.000000 0.000000 0.000000 0.000000 0.000000 0.000000 25.077893 -13.856707 16.886559 180.000000 18.119440 16.886559 23.861935 -8.559307 14.452610 156.138065 14.818564 26.289200 17.903699 -18.698546 -14.452610 18.000000 1.840819 1.243449
960.523360 444.997533 120.561095 0.000000 0.000000 0.000000 0.000000 0.000000 0.000000 25.638906 12.059742 19.021130 180.000000 -14.116607 19.021130 24.425035 -2.145264 17.633558 155.574965 -8.763873 24.270510 18.452907 -0.146765 -17.633558 18.000000 -0.238693 1.545085
960.627905 444.996447 129.609640 0.000000 0.000000 0.000000 0.000000 0.000000 0.000000 26.219073 7.581575 19.960535 180.000000 -7.241957 19.960535 25.006291 -2.236949 20.536413 154.993709 -5.988285 21.869059 19.024920 6.988376 -20.536413 18.000000 -0.710495 1.840623
1126.242828 420.359820 118.880896 0.000000 0.000000 0.000000 0.000000 0.000000 0.000000 31.410514 -3.734896 19.645745 -148.589486 0.888931 19.645745 32.280463 1.402181 23.115397 -131.603972 0.478920 19.122720 45.585331 -0.014942 -23.115397 -13.449727 -0.023666 2.128896
1257.895088 650.549197 129.736403 0.000000 0.000000 0.000000 0.000000 0.000000 0.000000 25.073180 -28.805969 18.096541 -154.926820 -3.039964 18.096541 46.260945 -2.365165 25.329838 -154.651428 -4.835493 16.074804 27.339487 5.482373 -25.329838 -13.619892 -0.336429 2.408768
960.941083 444.992008 150.675735 0.000000 0.000000 0.000000 0.000000 0.000000 0.000000 28.072001 8.718086 15.410265 180.000000 11.421715 15.410265 26.849221 -3.079433 27.144812 153.150779 -1.276119 12.773379 20.864045 -6.230373 -27.144812 18.000000 1.120082 2.679134
1163.815842 547.748709 128.617102 0.000000 0.000000 0.000000 0.000000 0.000000 0.000000 117.162728 7.957782 11.755705 -62.837272 -7.501713 11.755705 102.363764 0.392173 28.531695 -47.376450 -1.448895 9.270510 104.768601 -0.012120 -28.531695 -6.003489 0.016604 2.938926
961.149372 444.988063 136.048931 0.000000 0.000000 0.000000 0.000000 0.000000 0.000000 29.395983 14.303117 7.362491 180.000000 -22.330716 7.362491 28.146217 7.581527 29.468618 151.853783 2.455562 5.621439 22.170006 -7.163761 -29.468618 18.000000 -1.052157 3.187120
1136.717377 590.104480 141.999617 0.000000 0.000000 0.000000 0.000000 0.000000 0.000000 115.752126 13.218600 2.506665 -64.247874 -3.601246 2.506665 73.638146 -4.051827 29.940802 -21.842452 -4.201163 1.883716 75.369282 -1.352277 -29.940802 -6.767207 0.035782 3.422736
1163.079758 634.077559 131.885600 0.000000 0.000000 0.000000 0.000000 0.000000 0.000000 132.174340 2.727807 -2.506665 -47.825660 -2.314566 -2.506665 94.255711 2.670363 29.940802 -149.364979 -6.914857 -1.883716 30.021641 5.806169 -29.940802 -5.096180 -0.348936 3.644843
